{
  "asset": {
    "generator": "BabylonJS",
    "version": "2.0"
  },
  "buffers": [
    {
      "uri": "scene_data.bin",
      "byteLength": 912
    }
  ],
  "nodes": [
    {
      "name": "box",
      "mesh": 0,
      "rotation": [
        0,
        1,
        0,
        0
      ]
    },
    {
      "name": "light",
      "rotation": [
        0,
        1,
        0,
        0
      ]
    }
  ],
  "meshes": [
    {
      "primitives": [
        {
          "attributes": {
            "POSITION": 0,
            "NORMAL": 1
          },
          "indices": 2,
          "material": 0
        }
      ]
    }
  ],
  "scenes": [
    {
      "nodes": [
        0,
        1
      ]
    }
  ],
  "scene": 0,
  "bufferViews": [
    {
      "buffer": 0,
      "byteLength": 288,
      "name": "position - box",
      "byteStride": 12,
      "byteOffset": 0
    },
    {
      "buffer": 0,
      "byteLength": 288,
      "byteOffset": 288,
      "name": "normal - box",
      "byteStride": 12
    },
    {
      "buffer": 0,
      "byteLength": 192,
      "byteOffset": 576,
      "name": "uv - box",
      "byteStride": 8
    },
    {
      "buffer": 0,
      "byteLength": 144,
      "byteOffset": 768,
      "name": "Indices - box"
    }
  ],
  "accessors": [
    {
      "name": "position - box",
      "bufferView": 0,
      "componentType": 5126,
      "count": 24,
      "type": "VEC3",
      "min": [
        -0.5,
        -0.5,
        -0.5
      ],
      "max": [
        0.5,
        0.5,
        0.5
      ],
      "byteOffset": 0
    },
    {
      "name": "normal - box",
      "bufferView": 1,
      "componentType": 5126,
      "count": 24,
      "type": "VEC3",
      "byteOffset": 0
    },
    {
      "name": "indices - box",
      "bufferView": 3,
      "componentType": 5125,
      "count": 36,
      "type": "SCALAR",
      "byteOffset": 0
    }
  ],
  "materials": [
    {
      "name": "default material",
      "pbrMetallicRoughness": {
        "baseColorFactor": [
          0.5,
          0.5,
          0.5,
          1
        ],
        "metallicFactor": 0,
        "roughnessFactor": 0.3288090062081349
      }
    }
  ]
}